# xmcd CD database file
#
# Track frame offsets:
#	150
#	27765
#	45335
#	74675
#	100479
#	119657
#	137565
#	156184
#	174755
#	189070
#	210275
#	231447
#	252822
#	269127
#	294487
#	306420
#
# Disc length: 4442 seconds
#
# Revision: 6
# Processed by: cddbd v1.5.2PL0 Copyright (c) Steve Scherf et al.
# Submitted via: CDex 1.51
#
DISCID=e5115810
DTITLE=Walter Trout - Walter Trout
DYEAR=1998
DGENRE=Blues
TTITLE0=Got a Broken Heart
TTITLE1=Obstacles in My Way
TTITLE2=Come Home
TTITLE3=Marie's Mood
TTITLE4=One Way Street
TTITLE5=Tender Heart
TTITLE6=Hardtime Blues
TTITLE7=In Love with You Again
TTITLE8=Don't Worry about It
TTITLE9=Song for a Wanderer
TTITLE10=Temptation
TTITLE11=Walkin' in the Rain
TTITLE12=If You Ever Change Your Mind
TTITLE13=Jules Well
TTITLE14=Let Me Be the One
TTITLE15=Boo
EXTD=YEAR: 1998
EXTT0=
EXTT1=
EXTT2=
EXTT3=
EXTT4=
EXTT5=
EXTT6=
EXTT7=
EXTT8=
EXTT9=
EXTT10=
EXTT11=
EXTT12=
EXTT13=
EXTT14=
EXTT15=
PLAYORDER=
